# xmcd
#
# Track frame offsets:
#	150
#	17685
#	36127
#	52989
#	69969
#	87238
#	102698
#	117785
#	134499
#	147327
#	162602
#	175860
#	188843
#	205163
#	222872
#	240201
#	256319
#	262801
#	265773
#	270659
#	273286
#	274791
#	279671
#	282296
#
# Disc length: 3781 seconds
#
# Revision: 1
# Processed by: cddbd v1.5.1PL2 Copyright (c) Steve Scherf et al.
# Submitted via: audiograbber 1.83.01
#
DISCID=640ec318
DTITLE=Various Artist - CDX 396
DYEAR=2006
DGENRE=Country
TTITLE0=Bomshell - Ain't my day to care
TTITLE1=Chris Cagle - Anywhere but here
TTITLE2=Shedaisy - In terms of love
TTITLE3=Jeffa Bates - One second chance
TTITLE4=Trent Tomlinson - One wing in the fire
TTITLE5=Roseanne Cash - Radio operator
TTITLE6=Trace Adkins - Swing
TTITLE7=Cross Canadian Ragweed - This time around
TTITLE8=Hometown News - Brand new me
TTITLE9=Wayne Warner and the Nashville All-Star Choir - God bless the children
TTITLE10=Aaron Tippin - Ready to rock
TTITLE11=Jonathan Edwards and Doug Spartz - Sunshine 2006
TTITLE12=Brad Colerick - Fifty miles3
TTITLE13=Cheree Silcox - In his dreams
TTITLE14=Tresa Jordan - I turn to country
TTITLE15=Dixie Highway Band - She ain't Gretchen enough
TTITLE16=Jeff Bates - Story behind the song One second chance
TTITLE17=Trent Tomlinson - Story behind the song One wing in the fire
TTITLE18=none - USO PSA 1
TTITLE19=none - USO PSA 2
TTITLE20=none - USO PSA 3
TTITLE21=none - USO PSA 4
TTITLE22=none - USO PSA 5
TTITLE23=none - USO PSA 6
EXTD=
EXTT0=
EXTT1=
EXTT2=
EXTT3=
EXTT4=
EXTT5=
EXTT6=
EXTT7=
EXTT8=
EXTT9=
EXTT10=
EXTT11=
EXTT12=
EXTT13=
EXTT14=
EXTT15=
EXTT16=
EXTT17=
EXTT18=
EXTT19=
EXTT20=
EXTT21=
EXTT22=
EXTT23=
PLAYORDER=
